# xmcd
#
# Track frame offsets:
#	150
#	16069
#	27066
#	45438
#	59948
#	76368
#	94162
#	110677
#	125785
#	138162
#	154726
#	170483
#	188935
#
# Disc length: 2802
#
# Revision: 1
# Processed by: cddbd v1.5.1PL0 Copyright (c) Steve Scherf et al.
# Submitted via: dBpowerAMP V4.0
# Normalized: r0:TRMNUM
#
DISCID=ac0af00d
DTITLE=Ruth Hanna - faithful one
DYEAR=1999
DGENRE=Country
TTITLE0=Fiathful one
TTITLE1=Be thou my vision
TTITLE2=I will sing of my redeemer
TTITLE3=Gift of God
TTITLE4=He hideth my soul
TTITLE5=I am Waiting #
TTITLE6=My Jesus I love thee
TTITLE7=With Boldness *
TTITLE8=Higher ground #
TTITLE9=Here is love
TTITLE10=Jesus is Lord of all I love you Lord
TTITLE11=Power of love
TTITLE12=Good, good, good-bye **
EXTD=
EXTT0=
EXTT1=
EXTT2=
EXTT3=
EXTT4=
EXTT5=
EXTT6=
EXTT7=
EXTT8=
EXTT9=
EXTT10=
EXTT11=
EXTT12=
PLAYORDER=
